<?xml version="1.0" standalone="no"?>
<!DOCTYPE svg PUBLIC "-//W3C//DTD SVG 20010904//EN"
 "http://www.w3.org/TR/2001/REC-SVG-20010904/DTD/svg10.dtd">
<svg version="1.0" xmlns="http://www.w3.org/2000/svg"
 width="1280.000000pt" height="1280.000000pt" viewBox="0 0 1280.000000 1280.000000"
 preserveAspectRatio="xMidYMid meet">
<metadata>
Created by potrace 1.15, written by Peter Selinger 2001-2017
</metadata>
<g transform="translate(0.000000,1280.000000) scale(0.100000,-0.100000)"
fill="#E96B25" stroke="none">
<path d="M6157 12773 c-2 -10 -27 -92 -55 -183 -28 -91 -155 -529 -282 -975
-269 -942 -347 -1206 -362 -1220 -12 -12 39 -66 -837 885 -377 410 -730 790
-783 845 l-97 100 -1 -36 c0 -53 19 -231 140 -1294 60 -528 112 -998 115
-1045 4 -47 8 -95 11 -108 4 -21 2 -23 -18 -17 -38 12 -278 121 -798 363
-1195 555 -1400 648 -1458 667 l-23 7 22 -44 c44 -87 221 -410 639 -1163 471
-849 540 -977 540 -994 0 -15 -125 -14 -565 4 -1872 78 -1950 81 -1941 67 11
-19 294 -246 1006 -812 588 -467 775 -617 919 -737 17 -14 23 -25 16 -32 -17
-17 -249 -104 -1035 -391 -756 -276 -1109 -406 -1257 -466 -46 -18 -53 -29
-25 -37 9 -2 91 -27 182 -55 91 -28 545 -159 1010 -292 945 -270 1170 -337
1185 -352 12 -12 59 33 -880 -832 -401 -370 -779 -720 -840 -779 l-110 -106
36 -1 c53 0 230 19 1294 140 528 60 1008 113 1067 118 106 7 108 7 102 -13
-12 -39 -134 -305 -494 -1080 -403 -867 -542 -1174 -538 -1186 4 -11 235 114
1198 648 854 473 982 543 999 543 15 0 14 -125 -4 -565 -78 -1872 -81 -1950
-67 -1941 18 11 244 291 812 1006 467 588 619 777 737 919 15 18 25 23 32 16
18 -18 64 -140 541 -1445 148 -406 281 -762 315 -847 18 -46 30 -54 38 -25 2
9 27 91 55 182 28 91 155 530 282 975 269 942 347 1206 362 1220 12 12 -39 66
837 -885 377 -410 730 -790 783 -845 l97 -100 1 36 c0 53 -19 231 -140 1294
-60 528 -112 998 -115 1045 -4 47 -8 95 -11 108 -4 21 -2 23 18 17 38 -12 278
-121 798 -363 1195 -555 1400 -648 1458 -667 l23 -7 -22 44 c-44 87 -221 410
-639 1163 -471 849 -540 977 -540 994 0 15 125 14 565 -4 1872 -78 1950 -81
1941 -67 -11 19 -294 246 -1006 812 -588 467 -775 617 -919 737 -17 14 -23 25
-16 32 17 17 249 104 1035 391 756 276 1109 406 1258 466 45 18 52 29 25 37
-10 2 -92 27 -183 55 -91 28 -545 159 -1010 292 -945 270 -1170 337 -1185 352
-12 12 -59 -33 880 832 402 370 780 720 840 779 l110 106 -36 1 c-53 0 -230
-19 -1294 -140 -528 -60 -1008 -113 -1067 -118 -106 -7 -108 -7 -102 13 12 39
134 305 494 1080 403 867 542 1174 538 1186 -4 11 -235 -114 -1198 -648 -854
-473 -982 -543 -999 -543 -15 0 -14 125 4 565 78 1872 81 1950 67 1941 -18
-11 -244 -291 -812 -1006 -467 -588 -619 -777 -737 -919 -15 -18 -25 -23 -32
-16 -18 18 -64 140 -541 1445 -148 406 -281 762 -315 848 -18 45 -30 53 -38
25z"/>
</g>
</svg>
