<svg width="24" height="24" viewBox="0 0 24 24" fill="none" xmlns="http://www.w3.org/2000/svg">
<path fill-rule="evenodd" clip-rule="evenodd" d="M11.7696 3.00749C11.9219 2.97891 12.0782 2.97891 12.2305 3.00749C12.3783 3.03521 12.5321 3.10454 13.0957 3.38635L20.6646 7.17081C21.0351 7.35605 21.4856 7.20588 21.6708 6.8354C21.8561 6.46491 21.7059 6.01441 21.3354 5.82917L13.7665 2.04471L13.6882 2.00551C13.2402 1.78113 12.8879 1.60465 12.5071 1.53321C12.172 1.47033 11.8281 1.47033 11.493 1.53321C11.1122 1.60464 10.7599 1.78112 10.3119 2.00551L10.2336 2.0447L2.66459 5.82916C2.2941 6.01441 2.14393 6.46491 2.32918 6.83539C2.51442 7.20588 2.96492 7.35605 3.3354 7.17081L10.9044 3.38635C11.468 3.10454 11.6218 3.03521 11.7696 3.00749ZM14.7501 22.75L14.7459 22.7501C14.7222 22.7504 14.6164 22.752 14.5147 22.7317C14.1379 22.6568 13.8433 22.3622 13.7683 21.9853C13.7481 21.8836 13.7497 21.7778 13.75 21.7541L13.7501 21.75V17.5667C13.7501 16.6002 12.9666 15.8167 12.0001 15.8167C11.0336 15.8167 10.2501 16.6002 10.2501 17.5667V21.75L10.2501 21.7541C10.2505 21.7778 10.252 21.8836 10.2318 21.9853C10.1568 22.3622 9.86225 22.6568 9.48539 22.7317C9.38367 22.7519 9.27788 22.7504 9.25418 22.75L9.25006 22.75L9.14903 22.75C8.08376 22.7501 7.43465 22.7502 6.87833 22.6395C4.59733 22.1858 2.81425 20.4027 2.36054 18.1217C2.24988 17.5654 2.24994 16.9163 2.25005 15.851L2.25005 15.75L2.25005 13.68L2.25002 13.5557C2.24964 12.629 2.24939 11.9886 2.44546 11.4053C2.61832 10.891 2.9007 10.4204 3.27312 10.0258C3.69558 9.5783 4.26074 9.27718 5.07862 8.84139L5.1883 8.78294L10.1413 6.14137L10.2237 6.09736L10.2237 6.09735C10.6934 5.8464 11.0627 5.64909 11.4646 5.56931C11.8181 5.49912 12.182 5.49912 12.5356 5.56931C12.9375 5.64909 13.3068 5.84641 13.7765 6.09737L13.8589 6.14138L18.8118 8.78294L18.9215 8.84139C19.7394 9.27718 20.3045 9.5783 20.727 10.0258C21.0994 10.4204 21.3818 10.891 21.5546 11.4052C21.7507 11.9886 21.7505 12.629 21.7501 13.5557L21.75 13.68V15.75L21.7501 15.851C21.7502 16.9163 21.7502 17.5654 21.6396 18.1218C21.1859 20.4027 19.4028 22.1858 17.1218 22.6395C16.5655 22.7502 15.9164 22.7501 14.8511 22.75L14.7501 22.75Z" fill="#E96B25"/>
</svg>
