<svg width="97" height="38" viewBox="0 0 97 38" fill="none" xmlns="http://www.w3.org/2000/svg">
<rect width="97" height="38" rx="19" fill="black" fill-opacity="0.2"/>
<path d="M17.7168 24H16.3203V14.4785H17.7168V18.6934H22.6299V14.4785H24.0264V24H22.6299V19.9185H17.7168V24ZM28.7363 24.127C28.1016 24.127 27.5303 23.9831 27.0225 23.6953C26.5146 23.4076 26.1147 23.0161 25.8228 22.521C25.5308 22.0216 25.3848 21.4567 25.3848 20.8262C25.3848 20.1999 25.5308 19.6392 25.8228 19.144C26.1147 18.6447 26.5146 18.2511 27.0225 17.9634C27.5303 17.6714 28.1016 17.5254 28.7363 17.5254C29.3753 17.5254 29.9466 17.6714 30.4502 17.9634C30.9538 18.2511 31.3494 18.6447 31.6372 19.144C31.9292 19.6392 32.0752 20.1999 32.0752 20.8262C32.0752 21.4567 31.9292 22.0216 31.6372 22.521C31.3494 23.0161 30.9538 23.4076 30.4502 23.6953C29.9466 23.9831 29.3753 24.127 28.7363 24.127ZM28.73 22.959C29.1151 22.959 29.4578 22.8659 29.7583 22.6797C30.063 22.4893 30.3021 22.2354 30.4756 21.918C30.6533 21.5964 30.7422 21.2303 30.7422 20.8198C30.7422 20.4178 30.6533 20.0581 30.4756 19.7407C30.3021 19.4191 30.063 19.1652 29.7583 18.979C29.4578 18.7886 29.1151 18.6934 28.73 18.6934C28.3491 18.6934 28.0063 18.7886 27.7017 18.979C27.397 19.1652 27.1558 19.4191 26.978 19.7407C26.8045 20.0581 26.7178 20.4178 26.7178 20.8198C26.7178 21.2303 26.8045 21.5964 26.978 21.918C27.1558 22.2354 27.397 22.4893 27.7017 22.6797C28.0063 22.8659 28.3491 22.959 28.73 22.959ZM37.3057 23.8413C36.8613 24.0317 36.4318 24.127 36.0171 24.127C35.6024 24.127 35.2384 24.0381 34.9253 23.8604C34.6164 23.6826 34.373 23.4329 34.1953 23.1113C34.0218 22.7855 33.9351 22.411 33.9351 21.9878V18.814H32.8242V17.6523H33.9985V16.0654H35.2363V17.6523H37.0898V18.814H35.2363V21.7466C35.2363 22.119 35.3358 22.4152 35.5347 22.6353C35.7378 22.8511 35.998 22.959 36.3154 22.959C36.582 22.959 36.8465 22.8786 37.1089 22.7178L37.3057 23.8413ZM44.5674 24.127C43.9326 24.127 43.3613 23.9831 42.8535 23.6953C42.3457 23.4076 41.9458 23.0161 41.6538 22.521C41.3618 22.0216 41.2158 21.4567 41.2158 20.8262C41.2158 20.1999 41.3618 19.6392 41.6538 19.144C41.9458 18.6447 42.3457 18.2511 42.8535 17.9634C43.3613 17.6714 43.9326 17.5254 44.5674 17.5254C45.2064 17.5254 45.7777 17.6714 46.2812 17.9634C46.7848 18.2511 47.1805 18.6447 47.4683 19.144C47.7603 19.6392 47.9062 20.1999 47.9062 20.8262C47.9062 21.4567 47.7603 22.0216 47.4683 22.521C47.1805 23.0161 46.7848 23.4076 46.2812 23.6953C45.7777 23.9831 45.2064 24.127 44.5674 24.127ZM44.561 22.959C44.9461 22.959 45.2889 22.8659 45.5894 22.6797C45.894 22.4893 46.1331 22.2354 46.3066 21.918C46.4844 21.5964 46.5732 21.2303 46.5732 20.8198C46.5732 20.4178 46.4844 20.0581 46.3066 19.7407C46.1331 19.4191 45.894 19.1652 45.5894 18.979C45.2889 18.7886 44.9461 18.6934 44.561 18.6934C44.1802 18.6934 43.8374 18.7886 43.5327 18.979C43.228 19.1652 42.9868 19.4191 42.8091 19.7407C42.6356 20.0581 42.5488 20.4178 42.5488 20.8198C42.5488 21.2303 42.6356 21.5964 42.8091 21.918C42.9868 22.2354 43.228 22.4893 43.5327 22.6797C43.8374 22.8659 44.1802 22.959 44.561 22.959ZM50.5659 24H49.2646V17.6523H50.4009L50.4517 18.8584C50.6717 18.4395 50.9743 18.1136 51.3594 17.8809C51.7487 17.6439 52.1951 17.5254 52.6987 17.5254C52.8215 17.5254 52.9442 17.5339 53.0669 17.5508C53.1938 17.5635 53.3208 17.5846 53.4478 17.6143L53.2827 18.7886C53.0373 18.7251 52.7961 18.6934 52.5591 18.6934C52.1655 18.6934 51.8185 18.7886 51.5181 18.979C51.2176 19.1652 50.9827 19.4233 50.8135 19.7534C50.6484 20.0835 50.5659 20.4644 50.5659 20.896V24ZM65.9463 24H64.4102L58.9385 16.6494V24H57.542V14.4785H59.0781L64.5498 21.8354V14.4785H65.9463V24ZM70.6562 24.127C70.0215 24.127 69.4502 23.9831 68.9424 23.6953C68.4346 23.4076 68.0347 23.0161 67.7427 22.521C67.4507 22.0216 67.3047 21.4567 67.3047 20.8262C67.3047 20.1999 67.4507 19.6392 67.7427 19.144C68.0347 18.6447 68.4346 18.2511 68.9424 17.9634C69.4502 17.6714 70.0215 17.5254 70.6562 17.5254C71.2952 17.5254 71.8665 17.6714 72.3701 17.9634C72.8737 18.2511 73.2694 18.6447 73.5571 19.144C73.8491 19.6392 73.9951 20.1999 73.9951 20.8262C73.9951 21.4567 73.8491 22.0216 73.5571 22.521C73.2694 23.0161 72.8737 23.4076 72.3701 23.6953C71.8665 23.9831 71.2952 24.127 70.6562 24.127ZM70.6499 22.959C71.035 22.959 71.3778 22.8659 71.6782 22.6797C71.9829 22.4893 72.222 22.2354 72.3955 21.918C72.5732 21.5964 72.6621 21.2303 72.6621 20.8198C72.6621 20.4178 72.5732 20.0581 72.3955 19.7407C72.222 19.4191 71.9829 19.1652 71.6782 18.979C71.3778 18.7886 71.035 18.6934 70.6499 18.6934C70.269 18.6934 69.9263 18.7886 69.6216 18.979C69.3169 19.1652 69.0757 19.4191 68.8979 19.7407C68.7244 20.0581 68.6377 20.4178 68.6377 20.8198C68.6377 21.2303 68.7244 21.5964 68.8979 21.918C69.0757 22.2354 69.3169 22.4893 69.6216 22.6797C69.9263 22.8659 70.269 22.959 70.6499 22.959ZM79.2256 23.8413C78.7812 24.0317 78.3517 24.127 77.937 24.127C77.5223 24.127 77.1584 24.0381 76.8452 23.8604C76.5363 23.6826 76.293 23.4329 76.1152 23.1113C75.9417 22.7855 75.855 22.411 75.855 21.9878V18.814H74.7441V17.6523H75.9185V16.0654H77.1562V17.6523H79.0098V18.814H77.1562V21.7466C77.1562 22.119 77.2557 22.4152 77.4546 22.6353C77.6577 22.8511 77.918 22.959 78.2354 22.959C78.502 22.959 78.7664 22.8786 79.0288 22.7178L79.2256 23.8413Z" fill="white"/>
</svg>
