<svg
    width="24"
    height="18"
    viewBox="0 0 24 18"
    fill="none"
    xmlns="http://www.w3.org/2000/svg"
  >
    <path
      d="M10.0795 0.330457L5.90906 4.49999H1.125C0.503438 4.49999 0 5.00343 0 5.62499V12.375C0 12.9961 0.503438 13.5 1.125 13.5H5.90906L10.0795 17.6695C10.7841 18.3741 12 17.8791 12 16.8741V1.12593C12 0.119988 10.7831 -0.373137 10.0795 0.330457ZM21.6394 8.99999L23.7787 6.86061C24.0741 6.5653 24.0741 6.08624 23.7787 5.79093L22.7091 4.72124C22.4137 4.42593 21.9347 4.42593 21.6394 4.72124L19.5 6.86061L17.3606 4.72124C17.0653 4.42593 16.5863 4.42593 16.2909 4.72124L15.2213 5.79093C14.9259 6.08624 14.9259 6.5653 15.2213 6.86061L17.3606 8.99999L15.2217 11.1389C14.9264 11.4342 14.9264 11.9133 15.2217 12.2086L16.2914 13.2783C16.5867 13.5736 17.0658 13.5736 17.3611 13.2783L19.5 11.1394L21.6394 13.2787C21.9347 13.5741 22.4137 13.5741 22.7091 13.2787L23.7787 12.2091C24.0741 11.9137 24.0741 11.4347 23.7787 11.1394L21.6394 8.99999Z"
      fill="white"
    />
  </svg>

